<svg xmlns="http://www.w3.org/2000/svg" viewBox="0 0 512 512"><defs>
 <linearGradient id="grad" gradientUnits="userSpaceOnUse" x1="84" y1="206" x2="430" y2="306">
   <stop offset="0" stop-color="#0E74FF"></stop><stop offset="0.5" stop-color="#5A38F2"></stop><stop offset="1" stop-color="#9C20EE"></stop>
 </linearGradient>
 <radialGradient id="lensShade" gradientUnits="userSpaceOnUse" cx="214" cy="214" r="134">
   <stop offset="0.62" stop-color="#000" stop-opacity="0"></stop><stop offset="1" stop-color="#08052a" stop-opacity="0.18"></stop>
 </radialGradient>
 <radialGradient id="pupilG" gradientUnits="userSpaceOnUse" cx="242" cy="242" r="64">
   <stop offset="0" stop-color="#251d57"></stop><stop offset="1" stop-color="#120c33"></stop>
 </radialGradient>
 <radialGradient id="appbg" gradientUnits="userSpaceOnUse" cx="256" cy="200" r="360">
   <stop offset="0" stop-color="#1a1740"></stop><stop offset="1" stop-color="#0a0820"></stop>
 </radialGradient>
 </defs><g fill="none" stroke="url(#grad)" stroke-width="27" stroke-linecap="round"><path d="M 413.875 307.297 A 166 166 0 0 1 307.297 413.875"></path><path d="M 204.703 413.875 A 166 166 0 0 1 98.125 307.297"></path><path d="M 98.125 204.703 A 166 166 0 0 1 204.703 98.125"></path><path d="M 307.297 98.125 A 166 166 0 0 1 413.875 204.703"></path><path d="M 394 256 L 450 256"></path><path d="M 256 394 L 256 450"></path><path d="M 118 256 L 62 256"></path><path d="M 256 118 L 256 62"></path></g><g><circle cx="256" cy="256" r="120" fill="url(#grad)"></circle><path d="M 279.84 138.392 A 120 120 0 0 1 362.814 201.312 Q 301.138 199.906 261.554 199.271 A 57 57 0 0 0 215.111 216.288 Q 240.287 185.735 279.84 138.392 Z" fill="url(#grad)"></path><path d="M 279.84 138.392 A 120 120 0 0 1 362.814 201.312 Q 301.138 199.906 261.554 199.271 A 57 57 0 0 0 215.111 216.288 Q 240.287 185.735 279.84 138.392 Z" fill="#fff" fill-opacity="0.171"></path><path d="M 362.814 201.312 A 120 120 0 0 1 365.354 305.413 Q 327.999 256.317 303.815 224.973 A 57 57 0 0 0 261.554 199.271 Q 301.138 199.906 362.814 201.312 Z" fill="url(#grad)"></path><path d="M 362.814 201.312 A 120 120 0 0 1 365.354 305.413 Q 327.999 256.317 303.815 224.973 A 57 57 0 0 0 261.554 199.271 Q 301.138 199.906 362.814 201.312 Z" fill="#0a0730" fill-opacity="0"></path><path d="M 365.354 305.413 A 120 120 0 0 1 285.549 372.305 Q 300.643 312.489 310.07 274.038 A 57 57 0 0 0 303.815 224.973 Q 327.999 256.317 365.354 305.413 Z" fill="url(#grad)"></path><path d="M 365.354 305.413 A 120 120 0 0 1 285.549 372.305 Q 300.643 312.489 310.07 274.038 A 57 57 0 0 0 303.815 224.973 Q 327.999 256.317 365.354 305.413 Z" fill="#0a0730" fill-opacity="0.093"></path><path d="M 285.549 372.305 A 120 120 0 0 1 183.492 351.617 Q 239.67 326.124 275.609 309.521 A 57 57 0 0 0 310.07 274.038 Q 300.643 312.489 285.549 372.305 Z" fill="url(#grad)"></path><path d="M 285.549 372.305 A 120 120 0 0 1 183.492 351.617 Q 239.67 326.124 275.609 309.521 A 57 57 0 0 0 310.07 274.038 Q 300.643 312.489 285.549 372.305 Z" fill="#0a0730" fill-opacity="0.116"></path><path d="M 183.492 351.617 A 120 120 0 0 1 136.036 258.928 Q 190.993 286.954 226.382 304.701 A 57 57 0 0 0 275.609 309.521 Q 239.67 326.124 183.492 351.617 Z" fill="url(#grad)"></path><path d="M 183.492 351.617 A 120 120 0 0 1 136.036 258.928 Q 190.993 286.954 226.382 304.701 A 57 57 0 0 0 275.609 309.521 Q 239.67 326.124 183.492 351.617 Z" fill="#0a0730" fill-opacity="0.052"></path><path d="M 136.036 258.928 A 120 120 0 0 1 178.915 164.034 Q 191.268 224.475 199.458 263.208 A 57 57 0 0 0 226.382 304.701 Q 190.993 286.954 136.036 258.928 Z" fill="url(#grad)"></path><path d="M 136.036 258.928 A 120 120 0 0 1 178.915 164.034 Q 191.268 224.475 199.458 263.208 A 57 57 0 0 0 226.382 304.701 Q 190.993 286.954 136.036 258.928 Z" fill="#fff" fill-opacity="0.095"></path><path d="M 178.915 164.034 A 120 120 0 0 1 279.84 138.392 Q 240.287 185.735 215.111 216.288 A 57 57 0 0 0 199.458 263.208 Q 191.268 224.475 178.915 164.034 Z" fill="url(#grad)"></path><path d="M 178.915 164.034 A 120 120 0 0 1 279.84 138.392 Q 240.287 185.735 215.111 216.288 A 57 57 0 0 0 199.458 263.208 Q 191.268 224.475 178.915 164.034 Z" fill="#fff" fill-opacity="0.213"></path><path d="M 279.84 138.392 Q 240.287 185.735 215.111 216.288" fill="none" stroke="#08052a" stroke-opacity="0.13" stroke-width="1.3"></path><path d="M 362.814 201.312 Q 301.138 199.906 261.554 199.271" fill="none" stroke="#08052a" stroke-opacity="0.13" stroke-width="1.3"></path><path d="M 365.354 305.413 Q 327.999 256.317 303.815 224.973" fill="none" stroke="#08052a" stroke-opacity="0.13" stroke-width="1.3"></path><path d="M 285.549 372.305 Q 300.643 312.489 310.07 274.038" fill="none" stroke="#08052a" stroke-opacity="0.13" stroke-width="1.3"></path><path d="M 183.492 351.617 Q 239.67 326.124 275.609 309.521" fill="none" stroke="#08052a" stroke-opacity="0.13" stroke-width="1.3"></path><path d="M 136.036 258.928 Q 190.993 286.954 226.382 304.701" fill="none" stroke="#08052a" stroke-opacity="0.13" stroke-width="1.3"></path><path d="M 178.915 164.034 Q 191.268 224.475 199.458 263.208" fill="none" stroke="#08052a" stroke-opacity="0.13" stroke-width="1.3"></path><circle cx="256" cy="256" r="120" fill="url(#lensShade)"></circle><circle cx="256" cy="256" r="57" fill="url(#pupilG)"></circle><circle cx="233.2" cy="233.2" r="8.835" fill="#fff"></circle></g></svg>